# xmcd CD database file
#
# Track frame offsets:
#	150
#	35944
#	50246
#	64347
#	78224
#	89850
#	103573
#	116608
#	130852
#	145378
#	159675
#	172124
#	183974
#	196777
#	211349
#	225787
#
# Disc length: 3196 seconds
#
# Revision: 0
# Processed by: cddbd v1.5.2PL0 Copyright (c) Steve Scherf et al.
# Submitted via: CDex 1.51
#
DISCID=e80c7a10
DTITLE=Various Artist - Jazz - The Essential Collection disc 5
DYEAR=1900
DGENRE=Jazz
TTITLE0=Benny Goodman - Sing Sing Sing (With A Swing)
TTITLE1=Cab Calloway - Moonglow
TTITLE2=Count Basie - Jumpin' At The Woodside
TTITLE3=Jimmie Lunceford and His Orchestra - 'Tain't What You Do
TTITLE4=Mildred Bailey - Thanks For The Memory
TTITLE5=Benny Goodman and His Orchestra - I Was Lucky
TTITLE6=Duke Ellington and His Famous Orchestra - Merry-Go-Round
TTITLE7=Louis Armstrong - Body and Soul
TTITLE8=Artie Shaw - All The Things You Are
TTITLE9=The Boswell Sisters (feat. The Dorsey Brothers Orchestra) - When I Take My Sugar To Tea
TTITLE10=Billie Holiday - I've Got My Love To Keep Me Warm
TTITLE11=The Mills Brothers - Chinatown, My Chinatown
TTITLE12=Cab Calloway - Tickeration
TTITLE13=Ella Fitzgerald - If You Ever Should Leave
TTITLE14=Leo Reisman and His Orchestra (feat. Frank Luther) - You've Got That Thing
TTITLE15=Connie Boswell - Fare Thee Well Honey, Fare Thee Well
EXTD=
EXTT0=
EXTT1=
EXTT2=
EXTT3=
EXTT4=
EXTT5=
EXTT6=
EXTT7=
EXTT8=
EXTT9=
EXTT10=
EXTT11=
EXTT12=
EXTT13=
EXTT14=
EXTT15=
PLAYORDER=
